<mxfile host="app.diagrams.net" modified="2024-06-26T15:00:33.558Z" agent="Mozilla/5.0 (Windows NT 10.0; Win64; x64) AppleWebKit/537.36 (KHTML, like Gecko) Chrome/126.0.0.0 Safari/537.36" etag="tZSXA_qr-laoxZGS_gdl" version="24.6.3" type="device">
  <diagram id="C5RBs43oDa-KdzZeNtuy" name="Page-1">
    <mxGraphModel dx="2484" dy="-828" grid="1" gridSize="10" guides="1" tooltips="1" connect="1" arrows="1" fold="1" page="1" pageScale="1" pageWidth="827" pageHeight="1169" math="0" shadow="0">
      <root>
        <mxCell id="WIyWlLk6GJQsqaUBKTNV-0" />
        <mxCell id="WIyWlLk6GJQsqaUBKTNV-1" parent="WIyWlLk6GJQsqaUBKTNV-0" />
        <mxCell id="Df0qAwXKwFI4f-25RdQP-295" style="edgeStyle=orthogonalEdgeStyle;rounded=0;orthogonalLoop=1;jettySize=auto;html=1;entryX=0.439;entryY=0.011;entryDx=0;entryDy=0;exitX=0.783;exitY=1.028;exitDx=0;exitDy=0;exitPerimeter=0;entryPerimeter=0;" parent="WIyWlLk6GJQsqaUBKTNV-1" edge="1" target="Df0qAwXKwFI4f-25RdQP-89" source="k6RSO4q4kQYXokklgoc7-42">
          <mxGeometry relative="1" as="geometry">
            <mxPoint x="-710" y="2041" as="sourcePoint" />
            <mxPoint x="-710" y="2121" as="targetPoint" />
            <Array as="points" />
          </mxGeometry>
        </mxCell>
        <mxCell id="Df0qAwXKwFI4f-25RdQP-303" value="Mengirim Bukti&lt;div&gt;Penyelesaian Misi&lt;/div&gt;" style="edgeLabel;html=1;align=center;verticalAlign=middle;resizable=0;points=[];" parent="Df0qAwXKwFI4f-25RdQP-295" vertex="1" connectable="0">
          <mxGeometry x="-0.0601" y="-1" relative="1" as="geometry">
            <mxPoint y="-3" as="offset" />
          </mxGeometry>
        </mxCell>
        <mxCell id="Df0qAwXKwFI4f-25RdQP-300" style="edgeStyle=orthogonalEdgeStyle;rounded=0;orthogonalLoop=1;jettySize=auto;html=1;exitX=0.086;exitY=0.001;exitDx=0;exitDy=0;exitPerimeter=0;" parent="WIyWlLk6GJQsqaUBKTNV-1" source="Df0qAwXKwFI4f-25RdQP-89" target="k6RSO4q4kQYXokklgoc7-42" edge="1">
          <mxGeometry relative="1" as="geometry">
            <mxPoint x="-812.76" y="2041.06" as="targetPoint" />
            <Array as="points">
              <mxPoint x="-811" y="2100" />
              <mxPoint x="-810" y="2100" />
            </Array>
          </mxGeometry>
        </mxCell>
        <mxCell id="Df0qAwXKwFI4f-25RdQP-301" value="Menampilkan Detail&lt;div&gt;Spesifik Misi&lt;/div&gt;" style="edgeLabel;html=1;align=center;verticalAlign=middle;resizable=0;points=[];" parent="Df0qAwXKwFI4f-25RdQP-300" vertex="1" connectable="0">
          <mxGeometry x="0.1777" y="-1" relative="1" as="geometry">
            <mxPoint y="8" as="offset" />
          </mxGeometry>
        </mxCell>
        <mxCell id="Df0qAwXKwFI4f-25RdQP-89" value="MahasiswaController" style="swimlane;fontStyle=0;align=center;verticalAlign=top;childLayout=stackLayout;horizontal=1;startSize=26;horizontalStack=0;resizeParent=1;resizeLast=0;collapsible=1;marginBottom=0;rounded=0;shadow=0;strokeWidth=1;fillColor=#DAE8FC;strokeColor=#6C8EBF;" parent="WIyWlLk6GJQsqaUBKTNV-1" vertex="1">
          <mxGeometry x="-835" y="2110" width="285" height="216" as="geometry">
            <mxRectangle x="130" y="380" width="160" height="26" as="alternateBounds" />
          </mxGeometry>
        </mxCell>
        <mxCell id="Df0qAwXKwFI4f-25RdQP-90" value="" style="line;html=1;strokeWidth=1;align=left;verticalAlign=middle;spacingTop=-1;spacingLeft=3;spacingRight=3;rotatable=0;labelPosition=right;points=[];portConstraint=eastwest;" parent="Df0qAwXKwFI4f-25RdQP-89" vertex="1">
          <mxGeometry y="26" width="285" height="8" as="geometry" />
        </mxCell>
        <mxCell id="Df0qAwXKwFI4f-25RdQP-91" value="+void tampilkanMisiGuild()" style="text;align=left;verticalAlign=top;spacingLeft=4;spacingRight=4;overflow=hidden;rotatable=0;points=[[0,0.5],[1,0.5]];portConstraint=eastwest;" parent="Df0qAwXKwFI4f-25RdQP-89" vertex="1">
          <mxGeometry y="34" width="285" height="26" as="geometry" />
        </mxCell>
        <mxCell id="Df0qAwXKwFI4f-25RdQP-302" value="+void tampilkanDetailMisi(misi_id)" style="text;align=left;verticalAlign=top;spacingLeft=4;spacingRight=4;overflow=hidden;rotatable=0;points=[[0,0.5],[1,0.5]];portConstraint=eastwest;" parent="Df0qAwXKwFI4f-25RdQP-89" vertex="1">
          <mxGeometry y="60" width="285" height="26" as="geometry" />
        </mxCell>
        <mxCell id="Df0qAwXKwFI4f-25RdQP-294" value="+void kerjakanMisi(bukti_misi)" style="text;align=left;verticalAlign=top;spacingLeft=4;spacingRight=4;overflow=hidden;rotatable=0;points=[[0,0.5],[1,0.5]];portConstraint=eastwest;" parent="Df0qAwXKwFI4f-25RdQP-89" vertex="1">
          <mxGeometry y="86" width="285" height="26" as="geometry" />
        </mxCell>
        <mxCell id="Df0qAwXKwFI4f-25RdQP-92" value="+void requestMisiView" style="text;align=left;verticalAlign=top;spacingLeft=4;spacingRight=4;overflow=hidden;rotatable=0;points=[[0,0.5],[1,0.5]];portConstraint=eastwest;rounded=0;shadow=0;html=0;" parent="Df0qAwXKwFI4f-25RdQP-89" vertex="1">
          <mxGeometry y="112" width="285" height="26" as="geometry" />
        </mxCell>
        <mxCell id="k6RSO4q4kQYXokklgoc7-44" value="+void requestMisi(id_misi, judul, deskripsi, bukti)" style="text;align=left;verticalAlign=top;spacingLeft=4;spacingRight=4;overflow=hidden;rotatable=0;points=[[0,0.5],[1,0.5]];portConstraint=eastwest;rounded=0;shadow=0;html=0;" vertex="1" parent="Df0qAwXKwFI4f-25RdQP-89">
          <mxGeometry y="138" width="285" height="26" as="geometry" />
        </mxCell>
        <mxCell id="Df0qAwXKwFI4f-25RdQP-93" value="+void totalPoinUser(score)" style="text;align=left;verticalAlign=top;spacingLeft=4;spacingRight=4;overflow=hidden;rotatable=0;points=[[0,0.5],[1,0.5]];portConstraint=eastwest;rounded=0;shadow=0;html=0;" parent="Df0qAwXKwFI4f-25RdQP-89" vertex="1">
          <mxGeometry y="164" width="285" height="26" as="geometry" />
        </mxCell>
        <mxCell id="Df0qAwXKwFI4f-25RdQP-103" value="+void historyMisi()" style="text;align=left;verticalAlign=top;spacingLeft=4;spacingRight=4;overflow=hidden;rotatable=0;points=[[0,0.5],[1,0.5]];portConstraint=eastwest;rounded=0;shadow=0;html=0;" parent="Df0qAwXKwFI4f-25RdQP-89" vertex="1">
          <mxGeometry y="190" width="285" height="26" as="geometry" />
        </mxCell>
        <mxCell id="Df0qAwXKwFI4f-25RdQP-158" value="Misi Model" style="swimlane;fontStyle=0;align=center;verticalAlign=top;childLayout=stackLayout;horizontal=1;startSize=26;horizontalStack=0;resizeParent=1;resizeLast=0;collapsible=1;marginBottom=0;rounded=0;shadow=0;strokeWidth=1;fillColor=#FFE6CC;strokeColor=#D79B00;" parent="WIyWlLk6GJQsqaUBKTNV-1" vertex="1">
          <mxGeometry x="-200" y="1740" width="230" height="340" as="geometry">
            <mxRectangle x="-200" y="1740" width="160" height="26" as="alternateBounds" />
          </mxGeometry>
        </mxCell>
        <mxCell id="Df0qAwXKwFI4f-25RdQP-159" value="-int id" style="text;align=left;verticalAlign=top;spacingLeft=4;spacingRight=4;overflow=hidden;rotatable=0;points=[[0,0.5],[1,0.5]];portConstraint=eastwest;" parent="Df0qAwXKwFI4f-25RdQP-158" vertex="1">
          <mxGeometry y="26" width="230" height="26" as="geometry" />
        </mxCell>
        <mxCell id="Df0qAwXKwFI4f-25RdQP-160" value="-string judul" style="text;align=left;verticalAlign=top;spacingLeft=4;spacingRight=4;overflow=hidden;rotatable=0;points=[[0,0.5],[1,0.5]];portConstraint=eastwest;rounded=0;shadow=0;html=0;" parent="Df0qAwXKwFI4f-25RdQP-158" vertex="1">
          <mxGeometry y="52" width="230" height="26" as="geometry" />
        </mxCell>
        <mxCell id="Df0qAwXKwFI4f-25RdQP-161" value="-string deskripsi" style="text;align=left;verticalAlign=top;spacingLeft=4;spacingRight=4;overflow=hidden;rotatable=0;points=[[0,0.5],[1,0.5]];portConstraint=eastwest;rounded=0;shadow=0;html=0;" parent="Df0qAwXKwFI4f-25RdQP-158" vertex="1">
          <mxGeometry y="78" width="230" height="26" as="geometry" />
        </mxCell>
        <mxCell id="Df0qAwXKwFI4f-25RdQP-162" value="-string status" style="text;align=left;verticalAlign=top;spacingLeft=4;spacingRight=4;overflow=hidden;rotatable=0;points=[[0,0.5],[1,0.5]];portConstraint=eastwest;rounded=0;shadow=0;html=0;" parent="Df0qAwXKwFI4f-25RdQP-158" vertex="1">
          <mxGeometry y="104" width="230" height="26" as="geometry" />
        </mxCell>
        <mxCell id="Df0qAwXKwFI4f-25RdQP-163" value="-int ukm_id" style="text;align=left;verticalAlign=top;spacingLeft=4;spacingRight=4;overflow=hidden;rotatable=0;points=[[0,0.5],[1,0.5]];portConstraint=eastwest;rounded=0;shadow=0;html=0;" parent="Df0qAwXKwFI4f-25RdQP-158" vertex="1">
          <mxGeometry y="130" width="230" height="26" as="geometry" />
        </mxCell>
        <mxCell id="Df0qAwXKwFI4f-25RdQP-164" value="-string nama_ukm" style="text;align=left;verticalAlign=top;spacingLeft=4;spacingRight=4;overflow=hidden;rotatable=0;points=[[0,0.5],[1,0.5]];portConstraint=eastwest;rounded=0;shadow=0;html=0;" parent="Df0qAwXKwFI4f-25RdQP-158" vertex="1">
          <mxGeometry y="156" width="230" height="26" as="geometry" />
        </mxCell>
        <mxCell id="Df0qAwXKwFI4f-25RdQP-165" value="-int id_user(role = mahasiswa)" style="text;align=left;verticalAlign=top;spacingLeft=4;spacingRight=4;overflow=hidden;rotatable=0;points=[[0,0.5],[1,0.5]];portConstraint=eastwest;rounded=0;shadow=0;html=0;" parent="Df0qAwXKwFI4f-25RdQP-158" vertex="1">
          <mxGeometry y="182" width="230" height="26" as="geometry" />
        </mxCell>
        <mxCell id="Df0qAwXKwFI4f-25RdQP-166" value="-string nama_user(role = mahasiswa)" style="text;align=left;verticalAlign=top;spacingLeft=4;spacingRight=4;overflow=hidden;rotatable=0;points=[[0,0.5],[1,0.5]];portConstraint=eastwest;rounded=0;shadow=0;html=0;" parent="Df0qAwXKwFI4f-25RdQP-158" vertex="1">
          <mxGeometry y="208" width="230" height="26" as="geometry" />
        </mxCell>
        <mxCell id="Df0qAwXKwFI4f-25RdQP-167" value="-string npm_user(role = mahasiswa)" style="text;align=left;verticalAlign=top;spacingLeft=4;spacingRight=4;overflow=hidden;rotatable=0;points=[[0,0.5],[1,0.5]];portConstraint=eastwest;rounded=0;shadow=0;html=0;" parent="Df0qAwXKwFI4f-25RdQP-158" vertex="1">
          <mxGeometry y="234" width="230" height="26" as="geometry" />
        </mxCell>
        <mxCell id="Df0qAwXKwFI4f-25RdQP-168" value="-string bukti_Penyelesaian" style="text;align=left;verticalAlign=top;spacingLeft=4;spacingRight=4;overflow=hidden;rotatable=0;points=[[0,0.5],[1,0.5]];portConstraint=eastwest;rounded=0;shadow=0;html=0;" parent="Df0qAwXKwFI4f-25RdQP-158" vertex="1">
          <mxGeometry y="260" width="230" height="26" as="geometry" />
        </mxCell>
        <mxCell id="Df0qAwXKwFI4f-25RdQP-169" value="-int score_misi" style="text;align=left;verticalAlign=top;spacingLeft=4;spacingRight=4;overflow=hidden;rotatable=0;points=[[0,0.5],[1,0.5]];portConstraint=eastwest;rounded=0;shadow=0;html=0;" parent="Df0qAwXKwFI4f-25RdQP-158" vertex="1">
          <mxGeometry y="286" width="230" height="26" as="geometry" />
        </mxCell>
        <mxCell id="Df0qAwXKwFI4f-25RdQP-170" value="" style="line;html=1;strokeWidth=1;align=left;verticalAlign=middle;spacingTop=-1;spacingLeft=3;spacingRight=3;rotatable=0;labelPosition=right;points=[];portConstraint=eastwest;" parent="Df0qAwXKwFI4f-25RdQP-158" vertex="1">
          <mxGeometry y="312" width="230" height="8" as="geometry" />
        </mxCell>
        <mxCell id="Df0qAwXKwFI4f-25RdQP-171" value="User Model" style="swimlane;fontStyle=0;align=center;verticalAlign=top;childLayout=stackLayout;horizontal=1;startSize=26;horizontalStack=0;resizeParent=1;resizeLast=0;collapsible=1;marginBottom=0;rounded=0;shadow=0;strokeWidth=1;fillColor=#FFE6CC;strokeColor=#D79B00;" parent="WIyWlLk6GJQsqaUBKTNV-1" vertex="1">
          <mxGeometry x="-859" y="1360" width="160" height="240" as="geometry">
            <mxRectangle x="-859" y="1360" width="160" height="26" as="alternateBounds" />
          </mxGeometry>
        </mxCell>
        <mxCell id="Df0qAwXKwFI4f-25RdQP-172" value="-int id" style="text;align=left;verticalAlign=top;spacingLeft=4;spacingRight=4;overflow=hidden;rotatable=0;points=[[0,0.5],[1,0.5]];portConstraint=eastwest;" parent="Df0qAwXKwFI4f-25RdQP-171" vertex="1">
          <mxGeometry y="26" width="160" height="26" as="geometry" />
        </mxCell>
        <mxCell id="Df0qAwXKwFI4f-25RdQP-173" value="-string username" style="text;align=left;verticalAlign=top;spacingLeft=4;spacingRight=4;overflow=hidden;rotatable=0;points=[[0,0.5],[1,0.5]];portConstraint=eastwest;rounded=0;shadow=0;html=0;" parent="Df0qAwXKwFI4f-25RdQP-171" vertex="1">
          <mxGeometry y="52" width="160" height="26" as="geometry" />
        </mxCell>
        <mxCell id="Df0qAwXKwFI4f-25RdQP-174" value="-string nama" style="text;align=left;verticalAlign=top;spacingLeft=4;spacingRight=4;overflow=hidden;rotatable=0;points=[[0,0.5],[1,0.5]];portConstraint=eastwest;rounded=0;shadow=0;html=0;" parent="Df0qAwXKwFI4f-25RdQP-171" vertex="1">
          <mxGeometry y="78" width="160" height="26" as="geometry" />
        </mxCell>
        <mxCell id="Df0qAwXKwFI4f-25RdQP-175" value="-string npm/nrp" style="text;align=left;verticalAlign=top;spacingLeft=4;spacingRight=4;overflow=hidden;rotatable=0;points=[[0,0.5],[1,0.5]];portConstraint=eastwest;rounded=0;shadow=0;html=0;" parent="Df0qAwXKwFI4f-25RdQP-171" vertex="1">
          <mxGeometry y="104" width="160" height="26" as="geometry" />
        </mxCell>
        <mxCell id="Df0qAwXKwFI4f-25RdQP-176" value="-string password" style="text;align=left;verticalAlign=top;spacingLeft=4;spacingRight=4;overflow=hidden;rotatable=0;points=[[0,0.5],[1,0.5]];portConstraint=eastwest;rounded=0;shadow=0;html=0;" parent="Df0qAwXKwFI4f-25RdQP-171" vertex="1">
          <mxGeometry y="130" width="160" height="26" as="geometry" />
        </mxCell>
        <mxCell id="Df0qAwXKwFI4f-25RdQP-177" value="-string role" style="text;align=left;verticalAlign=top;spacingLeft=4;spacingRight=4;overflow=hidden;rotatable=0;points=[[0,0.5],[1,0.5]];portConstraint=eastwest;rounded=0;shadow=0;html=0;" parent="Df0qAwXKwFI4f-25RdQP-171" vertex="1">
          <mxGeometry y="156" width="160" height="26" as="geometry" />
        </mxCell>
        <mxCell id="Df0qAwXKwFI4f-25RdQP-178" value="-string totalPoinUser" style="text;align=left;verticalAlign=top;spacingLeft=4;spacingRight=4;overflow=hidden;rotatable=0;points=[[0,0.5],[1,0.5]];portConstraint=eastwest;rounded=0;shadow=0;html=0;" parent="Df0qAwXKwFI4f-25RdQP-171" vertex="1">
          <mxGeometry y="182" width="160" height="26" as="geometry" />
        </mxCell>
        <mxCell id="Df0qAwXKwFI4f-25RdQP-179" value="" style="line;html=1;strokeWidth=1;align=left;verticalAlign=middle;spacingTop=-1;spacingLeft=3;spacingRight=3;rotatable=0;labelPosition=right;points=[];portConstraint=eastwest;fillColor=#FF8000;" parent="Df0qAwXKwFI4f-25RdQP-171" vertex="1">
          <mxGeometry y="208" width="160" height="12" as="geometry" />
        </mxCell>
        <mxCell id="Df0qAwXKwFI4f-25RdQP-180" style="edgeStyle=orthogonalEdgeStyle;rounded=0;orthogonalLoop=1;jettySize=auto;html=1;exitX=1;exitY=0.25;exitDx=0;exitDy=0;entryX=-0.001;entryY=0.789;entryDx=0;entryDy=0;entryPerimeter=0;" parent="WIyWlLk6GJQsqaUBKTNV-1" source="k6RSO4q4kQYXokklgoc7-0" target="Df0qAwXKwFI4f-25RdQP-189" edge="1">
          <mxGeometry relative="1" as="geometry">
            <mxPoint x="-739" y="1700" as="sourcePoint" />
            <Array as="points">
              <mxPoint x="-640" y="1662" />
              <mxPoint x="-640" y="1550" />
              <mxPoint x="-570" y="1550" />
            </Array>
          </mxGeometry>
        </mxCell>
        <mxCell id="Df0qAwXKwFI4f-25RdQP-181" value="Mengirimkan email dan password" style="edgeLabel;html=1;align=center;verticalAlign=middle;resizable=0;points=[];" parent="Df0qAwXKwFI4f-25RdQP-180" vertex="1" connectable="0">
          <mxGeometry x="-0.0172" y="-1" relative="1" as="geometry">
            <mxPoint x="-27" y="1" as="offset" />
          </mxGeometry>
        </mxCell>
        <mxCell id="Df0qAwXKwFI4f-25RdQP-186" value="LoginController" style="swimlane;fontStyle=0;align=center;verticalAlign=top;childLayout=stackLayout;horizontal=1;startSize=26;horizontalStack=0;resizeParent=1;resizeLast=0;collapsible=1;marginBottom=0;rounded=0;shadow=0;strokeWidth=1;fillColor=#DAE8FC;strokeColor=#6C8EBF;" parent="WIyWlLk6GJQsqaUBKTNV-1" vertex="1">
          <mxGeometry x="-570" y="1470" width="230" height="90" as="geometry">
            <mxRectangle x="130" y="380" width="160" height="26" as="alternateBounds" />
          </mxGeometry>
        </mxCell>
        <mxCell id="Df0qAwXKwFI4f-25RdQP-187" value="" style="line;html=1;strokeWidth=1;align=left;verticalAlign=middle;spacingTop=-1;spacingLeft=3;spacingRight=3;rotatable=0;labelPosition=right;points=[];portConstraint=eastwest;" parent="Df0qAwXKwFI4f-25RdQP-186" vertex="1">
          <mxGeometry y="26" width="230" height="8" as="geometry" />
        </mxCell>
        <mxCell id="Df0qAwXKwFI4f-25RdQP-188" value="+void login(username, password, role)" style="text;align=left;verticalAlign=top;spacingLeft=4;spacingRight=4;overflow=hidden;rotatable=0;points=[[0,0.5],[1,0.5]];portConstraint=eastwest;" parent="Df0qAwXKwFI4f-25RdQP-186" vertex="1">
          <mxGeometry y="34" width="230" height="26" as="geometry" />
        </mxCell>
        <mxCell id="Df0qAwXKwFI4f-25RdQP-189" value="+void logout()" style="text;align=left;verticalAlign=top;spacingLeft=4;spacingRight=4;overflow=hidden;rotatable=0;points=[[0,0.5],[1,0.5]];portConstraint=eastwest;rounded=0;shadow=0;html=0;" parent="Df0qAwXKwFI4f-25RdQP-186" vertex="1">
          <mxGeometry y="60" width="230" height="26" as="geometry" />
        </mxCell>
        <mxCell id="Df0qAwXKwFI4f-25RdQP-190" value="" style="endArrow=block;endSize=10;endFill=0;shadow=0;strokeWidth=1;rounded=0;curved=0;edgeStyle=elbowEdgeStyle;elbow=vertical;" parent="WIyWlLk6GJQsqaUBKTNV-1" source="Df0qAwXKwFI4f-25RdQP-186" target="Df0qAwXKwFI4f-25RdQP-171" edge="1">
          <mxGeometry width="160" relative="1" as="geometry">
            <mxPoint x="-562.3000000000002" y="1517.568" as="sourcePoint" />
            <mxPoint x="-699" y="1530" as="targetPoint" />
            <Array as="points">
              <mxPoint x="-620" y="1540" />
            </Array>
          </mxGeometry>
        </mxCell>
        <mxCell id="Df0qAwXKwFI4f-25RdQP-191" value="Mengecek Username&lt;br&gt;&lt;div&gt;dan Password&lt;/div&gt;" style="edgeLabel;html=1;align=center;verticalAlign=middle;resizable=0;points=[];" parent="Df0qAwXKwFI4f-25RdQP-190" vertex="1" connectable="0">
          <mxGeometry x="-0.1191" relative="1" as="geometry">
            <mxPoint x="-3" y="-16" as="offset" />
          </mxGeometry>
        </mxCell>
        <mxCell id="Df0qAwXKwFI4f-25RdQP-194" style="edgeStyle=orthogonalEdgeStyle;rounded=0;orthogonalLoop=1;jettySize=auto;html=1;" parent="WIyWlLk6GJQsqaUBKTNV-1" source="Df0qAwXKwFI4f-25RdQP-186" target="k6RSO4q4kQYXokklgoc7-24" edge="1">
          <mxGeometry relative="1" as="geometry">
            <mxPoint x="-589.7600000000002" y="1494.8300000000002" as="sourcePoint" />
            <mxPoint x="-629.96" y="1450" as="targetPoint" />
            <Array as="points">
              <mxPoint x="-630" y="1495" />
            </Array>
          </mxGeometry>
        </mxCell>
        <mxCell id="Df0qAwXKwFI4f-25RdQP-195" value="User = Dosen Wali" style="edgeLabel;html=1;align=center;verticalAlign=middle;resizable=0;points=[];" parent="Df0qAwXKwFI4f-25RdQP-194" vertex="1" connectable="0">
          <mxGeometry x="-0.1016" y="-4" relative="1" as="geometry">
            <mxPoint x="-12" y="-11" as="offset" />
          </mxGeometry>
        </mxCell>
        <mxCell id="Df0qAwXKwFI4f-25RdQP-196" value="DosenWaliController" style="swimlane;fontStyle=0;align=center;verticalAlign=top;childLayout=stackLayout;horizontal=1;startSize=26;horizontalStack=0;resizeParent=1;resizeLast=0;collapsible=1;marginBottom=0;rounded=0;shadow=0;strokeWidth=1;fillColor=#DAE8FC;strokeColor=#6C8EBF;" parent="WIyWlLk6GJQsqaUBKTNV-1" vertex="1">
          <mxGeometry x="-330" y="1380" width="230" height="112" as="geometry">
            <mxRectangle x="130" y="380" width="160" height="26" as="alternateBounds" />
          </mxGeometry>
        </mxCell>
        <mxCell id="Df0qAwXKwFI4f-25RdQP-197" value="" style="line;html=1;strokeWidth=1;align=left;verticalAlign=middle;spacingTop=-1;spacingLeft=3;spacingRight=3;rotatable=0;labelPosition=right;points=[];portConstraint=eastwest;" parent="Df0qAwXKwFI4f-25RdQP-196" vertex="1">
          <mxGeometry y="26" width="230" height="8" as="geometry" />
        </mxCell>
        <mxCell id="Df0qAwXKwFI4f-25RdQP-198" value="+void detailMisi()" style="text;align=left;verticalAlign=top;spacingLeft=4;spacingRight=4;overflow=hidden;rotatable=0;points=[[0,0.5],[1,0.5]];portConstraint=eastwest;" parent="Df0qAwXKwFI4f-25RdQP-196" vertex="1">
          <mxGeometry y="34" width="230" height="26" as="geometry" />
        </mxCell>
        <mxCell id="Df0qAwXKwFI4f-25RdQP-199" value="+void accMisi()" style="text;align=left;verticalAlign=top;spacingLeft=4;spacingRight=4;overflow=hidden;rotatable=0;points=[[0,0.5],[1,0.5]];portConstraint=eastwest;" parent="Df0qAwXKwFI4f-25RdQP-196" vertex="1">
          <mxGeometry y="60" width="230" height="26" as="geometry" />
        </mxCell>
        <mxCell id="Df0qAwXKwFI4f-25RdQP-200" value="+void tolakMisi()" style="text;align=left;verticalAlign=top;spacingLeft=4;spacingRight=4;overflow=hidden;rotatable=0;points=[[0,0.5],[1,0.5]];portConstraint=eastwest;rounded=0;shadow=0;html=0;" parent="Df0qAwXKwFI4f-25RdQP-196" vertex="1">
          <mxGeometry y="86" width="230" height="26" as="geometry" />
        </mxCell>
        <mxCell id="Df0qAwXKwFI4f-25RdQP-201" value="" style="endArrow=block;endSize=10;endFill=0;shadow=0;strokeWidth=1;rounded=0;curved=0;edgeStyle=elbowEdgeStyle;elbow=horizontal;exitX=0.999;exitY=-0.052;exitDx=0;exitDy=0;exitPerimeter=0;" parent="WIyWlLk6GJQsqaUBKTNV-1" source="Df0qAwXKwFI4f-25RdQP-200" target="Df0qAwXKwFI4f-25RdQP-158" edge="1">
          <mxGeometry width="160" relative="1" as="geometry">
            <mxPoint x="-145.06" y="1426.48" as="sourcePoint" />
            <mxPoint x="-50" y="1590" as="targetPoint" />
            <Array as="points">
              <mxPoint y="1590" />
            </Array>
          </mxGeometry>
        </mxCell>
        <mxCell id="Df0qAwXKwFI4f-25RdQP-202" value="Mengambil Detail Misi" style="edgeLabel;html=1;align=center;verticalAlign=middle;resizable=0;points=[];" parent="Df0qAwXKwFI4f-25RdQP-201" vertex="1" connectable="0">
          <mxGeometry x="-0.1191" relative="1" as="geometry">
            <mxPoint x="-27" y="-64" as="offset" />
          </mxGeometry>
        </mxCell>
        <mxCell id="Df0qAwXKwFI4f-25RdQP-203" style="edgeStyle=orthogonalEdgeStyle;rounded=0;orthogonalLoop=1;jettySize=auto;html=1;exitX=0;exitY=0.25;exitDx=0;exitDy=0;" parent="WIyWlLk6GJQsqaUBKTNV-1" source="Df0qAwXKwFI4f-25RdQP-196" target="k6RSO4q4kQYXokklgoc7-24" edge="1">
          <mxGeometry relative="1" as="geometry">
            <mxPoint x="-540" y="1415" as="targetPoint" />
            <mxPoint x="-390" y="1415" as="sourcePoint" />
            <Array as="points">
              <mxPoint x="-460" y="1408" />
              <mxPoint x="-460" y="1408" />
            </Array>
          </mxGeometry>
        </mxCell>
        <mxCell id="Df0qAwXKwFI4f-25RdQP-204" value="Menampilkan Detail Misi" style="edgeLabel;html=1;align=center;verticalAlign=middle;resizable=0;points=[];" parent="Df0qAwXKwFI4f-25RdQP-203" vertex="1" connectable="0">
          <mxGeometry x="0.2451" y="1" relative="1" as="geometry">
            <mxPoint x="20" y="-10" as="offset" />
          </mxGeometry>
        </mxCell>
        <mxCell id="Df0qAwXKwFI4f-25RdQP-205" style="edgeStyle=orthogonalEdgeStyle;rounded=0;orthogonalLoop=1;jettySize=auto;html=1;exitX=1;exitY=0.791;exitDx=0;exitDy=0;exitPerimeter=0;entryX=-0.001;entryY=0.151;entryDx=0;entryDy=0;entryPerimeter=0;" parent="WIyWlLk6GJQsqaUBKTNV-1" source="k6RSO4q4kQYXokklgoc7-26" target="Df0qAwXKwFI4f-25RdQP-199" edge="1">
          <mxGeometry relative="1" as="geometry">
            <mxPoint x="-499.2800000000002" y="1450.2020000000002" as="sourcePoint" />
            <mxPoint x="-330" y="1450" as="targetPoint" />
            <Array as="points">
              <mxPoint x="-340" y="1445" />
              <mxPoint x="-330" y="1444" />
            </Array>
          </mxGeometry>
        </mxCell>
        <mxCell id="Df0qAwXKwFI4f-25RdQP-206" value="Mengedit Detail Misi&lt;div&gt;(ACC/Tolak Misi[status])&lt;/div&gt;" style="edgeLabel;html=1;align=center;verticalAlign=middle;resizable=0;points=[];" parent="Df0qAwXKwFI4f-25RdQP-205" vertex="1" connectable="0">
          <mxGeometry x="-0.2923" y="1" relative="1" as="geometry">
            <mxPoint x="19" y="-15" as="offset" />
          </mxGeometry>
        </mxCell>
        <mxCell id="Df0qAwXKwFI4f-25RdQP-207" style="edgeStyle=orthogonalEdgeStyle;rounded=0;orthogonalLoop=1;jettySize=auto;html=1;entryX=0.216;entryY=0.001;entryDx=0;entryDy=0;entryPerimeter=0;exitX=1;exitY=0.5;exitDx=0;exitDy=0;" parent="WIyWlLk6GJQsqaUBKTNV-1" edge="1" source="Df0qAwXKwFI4f-25RdQP-200">
          <mxGeometry relative="1" as="geometry">
            <mxPoint x="-49.68000000000001" y="1492" as="sourcePoint" />
            <mxPoint x="-49.999999999999716" y="1740.3400000000001" as="targetPoint" />
            <Array as="points">
              <mxPoint x="-50" y="1479" />
            </Array>
          </mxGeometry>
        </mxCell>
        <mxCell id="Df0qAwXKwFI4f-25RdQP-208" value="Mengirimkan Perubahan&lt;div&gt;Status pada Misi&lt;/div&gt;" style="edgeLabel;html=1;align=center;verticalAlign=middle;resizable=0;points=[];" parent="Df0qAwXKwFI4f-25RdQP-207" vertex="1" connectable="0">
          <mxGeometry x="0.0011" relative="1" as="geometry">
            <mxPoint x="-20" y="-56" as="offset" />
          </mxGeometry>
        </mxCell>
        <mxCell id="Df0qAwXKwFI4f-25RdQP-229" style="edgeStyle=orthogonalEdgeStyle;rounded=0;orthogonalLoop=1;jettySize=auto;html=1;entryX=0.5;entryY=0;entryDx=0;entryDy=0;" parent="WIyWlLk6GJQsqaUBKTNV-1" target="k6RSO4q4kQYXokklgoc7-17" edge="1" source="Df0qAwXKwFI4f-25RdQP-186">
          <mxGeometry relative="1" as="geometry">
            <mxPoint x="-439" y="1620" as="sourcePoint" />
            <mxPoint x="-380" y="1670" as="targetPoint" />
            <Array as="points">
              <mxPoint x="-440" y="1580" />
              <mxPoint x="-440" y="1580" />
            </Array>
          </mxGeometry>
        </mxCell>
        <mxCell id="Df0qAwXKwFI4f-25RdQP-230" value="User = Admin UKM" style="edgeLabel;html=1;align=center;verticalAlign=middle;resizable=0;points=[];" parent="Df0qAwXKwFI4f-25RdQP-229" vertex="1" connectable="0">
          <mxGeometry x="-0.5096" y="-1" relative="1" as="geometry">
            <mxPoint x="1" y="2" as="offset" />
          </mxGeometry>
        </mxCell>
        <mxCell id="Df0qAwXKwFI4f-25RdQP-233" value="AdminUkmController" style="swimlane;fontStyle=0;align=center;verticalAlign=top;childLayout=stackLayout;horizontal=1;startSize=26;horizontalStack=0;resizeParent=1;resizeLast=0;collapsible=1;marginBottom=0;rounded=0;shadow=0;strokeWidth=1;fillColor=#DAE8FC;strokeColor=#6C8EBF;" parent="WIyWlLk6GJQsqaUBKTNV-1" vertex="1">
          <mxGeometry x="-495" y="1806" width="235" height="138" as="geometry">
            <mxRectangle x="130" y="380" width="160" height="26" as="alternateBounds" />
          </mxGeometry>
        </mxCell>
        <mxCell id="Df0qAwXKwFI4f-25RdQP-234" value="" style="line;html=1;strokeWidth=1;align=left;verticalAlign=middle;spacingTop=-1;spacingLeft=3;spacingRight=3;rotatable=0;labelPosition=right;points=[];portConstraint=eastwest;" parent="Df0qAwXKwFI4f-25RdQP-233" vertex="1">
          <mxGeometry y="26" width="235" height="8" as="geometry" />
        </mxCell>
        <mxCell id="Df0qAwXKwFI4f-25RdQP-235" value="+void tampilkanMisi(id_UKM)" style="text;align=left;verticalAlign=top;spacingLeft=4;spacingRight=4;overflow=hidden;rotatable=0;points=[[0,0.5],[1,0.5]];portConstraint=eastwest;" parent="Df0qAwXKwFI4f-25RdQP-233" vertex="1">
          <mxGeometry y="34" width="235" height="26" as="geometry" />
        </mxCell>
        <mxCell id="Df0qAwXKwFI4f-25RdQP-236" value="+void tambahMisi(id_misi, judul, deskripsi)" style="text;align=left;verticalAlign=top;spacingLeft=4;spacingRight=4;overflow=hidden;rotatable=0;points=[[0,0.5],[1,0.5]];portConstraint=eastwest;" parent="Df0qAwXKwFI4f-25RdQP-233" vertex="1">
          <mxGeometry y="60" width="235" height="26" as="geometry" />
        </mxCell>
        <mxCell id="Df0qAwXKwFI4f-25RdQP-237" value="+void editMisi()" style="text;align=left;verticalAlign=top;spacingLeft=4;spacingRight=4;overflow=hidden;rotatable=0;points=[[0,0.5],[1,0.5]];portConstraint=eastwest;rounded=0;shadow=0;html=0;" parent="Df0qAwXKwFI4f-25RdQP-233" vertex="1">
          <mxGeometry y="86" width="235" height="26" as="geometry" />
        </mxCell>
        <mxCell id="Df0qAwXKwFI4f-25RdQP-238" value="+void hapusMisi()" style="text;align=left;verticalAlign=top;spacingLeft=4;spacingRight=4;overflow=hidden;rotatable=0;points=[[0,0.5],[1,0.5]];portConstraint=eastwest;rounded=0;shadow=0;html=0;" parent="Df0qAwXKwFI4f-25RdQP-233" vertex="1">
          <mxGeometry y="112" width="235" height="26" as="geometry" />
        </mxCell>
        <mxCell id="Df0qAwXKwFI4f-25RdQP-245" style="edgeStyle=orthogonalEdgeStyle;rounded=0;orthogonalLoop=1;jettySize=auto;html=1;exitX=0.234;exitY=1.058;exitDx=0;exitDy=0;exitPerimeter=0;entryX=0;entryY=0.615;entryDx=0;entryDy=0;entryPerimeter=0;" parent="WIyWlLk6GJQsqaUBKTNV-1" source="Df0qAwXKwFI4f-25RdQP-238" target="Df0qAwXKwFI4f-25RdQP-167" edge="1">
          <mxGeometry relative="1" as="geometry">
            <mxPoint x="-210" y="1980" as="targetPoint" />
            <mxPoint x="-382.5" y="2171" as="sourcePoint" />
            <Array as="points">
              <mxPoint x="-440" y="1950" />
              <mxPoint x="-441" y="1950" />
              <mxPoint x="-441" y="1990" />
            </Array>
          </mxGeometry>
        </mxCell>
        <mxCell id="Df0qAwXKwFI4f-25RdQP-246" value="Menyimpan Perubahan Misi" style="edgeLabel;html=1;align=center;verticalAlign=middle;resizable=0;points=[];" parent="Df0qAwXKwFI4f-25RdQP-245" vertex="1" connectable="0">
          <mxGeometry x="0.5544" y="-3" relative="1" as="geometry">
            <mxPoint x="-103" y="-3" as="offset" />
          </mxGeometry>
        </mxCell>
        <mxCell id="Df0qAwXKwFI4f-25RdQP-247" value="" style="endArrow=block;endSize=10;endFill=0;shadow=0;strokeWidth=1;rounded=0;curved=0;edgeStyle=elbowEdgeStyle;elbow=horizontal;entryX=0;entryY=0.5;entryDx=0;entryDy=0;exitX=0.655;exitY=0.987;exitDx=0;exitDy=0;exitPerimeter=0;" parent="WIyWlLk6GJQsqaUBKTNV-1" source="Df0qAwXKwFI4f-25RdQP-238" target="Df0qAwXKwFI4f-25RdQP-166" edge="1">
          <mxGeometry width="160" relative="1" as="geometry">
            <mxPoint x="-330" y="2000" as="sourcePoint" />
            <mxPoint x="-200" y="2029.82" as="targetPoint" />
            <Array as="points">
              <mxPoint x="-340" y="1960" />
            </Array>
          </mxGeometry>
        </mxCell>
        <mxCell id="Df0qAwXKwFI4f-25RdQP-248" value="Mengambil Detail Misi berdasarkan UKM" style="edgeLabel;html=1;align=center;verticalAlign=middle;resizable=0;points=[];" parent="Df0qAwXKwFI4f-25RdQP-247" vertex="1" connectable="0">
          <mxGeometry x="-0.1191" relative="1" as="geometry">
            <mxPoint x="-40" y="-1" as="offset" />
          </mxGeometry>
        </mxCell>
        <mxCell id="Df0qAwXKwFI4f-25RdQP-250" style="edgeStyle=orthogonalEdgeStyle;rounded=0;orthogonalLoop=1;jettySize=auto;html=1;exitX=1.015;exitY=0.096;exitDx=0;exitDy=0;exitPerimeter=0;entryX=1;entryY=0.25;entryDx=0;entryDy=0;" parent="WIyWlLk6GJQsqaUBKTNV-1" source="Df0qAwXKwFI4f-25RdQP-233" target="k6RSO4q4kQYXokklgoc7-17" edge="1">
          <mxGeometry relative="1" as="geometry">
            <mxPoint x="-270" y="1803" as="sourcePoint" />
            <mxPoint x="-760" y="1929.24" as="targetPoint" />
            <Array as="points">
              <mxPoint x="-210" y="1819" />
              <mxPoint x="-210" y="1730" />
              <mxPoint x="-90" y="1730" />
              <mxPoint x="-90" y="1603" />
            </Array>
          </mxGeometry>
        </mxCell>
        <mxCell id="Df0qAwXKwFI4f-25RdQP-251" value="Menampilkan Detail Misi UKM" style="edgeLabel;html=1;align=center;verticalAlign=middle;resizable=0;points=[];" parent="Df0qAwXKwFI4f-25RdQP-250" vertex="1" connectable="0">
          <mxGeometry x="-0.0442" y="-2" relative="1" as="geometry">
            <mxPoint x="-82" y="-89" as="offset" />
          </mxGeometry>
        </mxCell>
        <mxCell id="Df0qAwXKwFI4f-25RdQP-252" style="edgeStyle=orthogonalEdgeStyle;rounded=0;orthogonalLoop=1;jettySize=auto;html=1;exitX=0;exitY=0.5;exitDx=0;exitDy=0;" parent="WIyWlLk6GJQsqaUBKTNV-1" target="Df0qAwXKwFI4f-25RdQP-233" edge="1" source="k6RSO4q4kQYXokklgoc7-19">
          <mxGeometry relative="1" as="geometry">
            <mxPoint x="-470" y="1700" as="sourcePoint" />
            <mxPoint x="-490" y="1807" as="targetPoint" />
            <Array as="points">
              <mxPoint x="-560" y="1635" />
              <mxPoint x="-560" y="1820" />
            </Array>
          </mxGeometry>
        </mxCell>
        <mxCell id="Df0qAwXKwFI4f-25RdQP-253" value="Mengirimkan Perubahan&lt;div&gt;pada Detail Misi UKM&lt;/div&gt;&lt;div&gt;(Menghapus)&lt;/div&gt;" style="edgeLabel;html=1;align=center;verticalAlign=middle;resizable=0;points=[];" parent="Df0qAwXKwFI4f-25RdQP-252" vertex="1" connectable="0">
          <mxGeometry x="-0.0043" y="1" relative="1" as="geometry">
            <mxPoint x="-1" y="-18" as="offset" />
          </mxGeometry>
        </mxCell>
        <mxCell id="Df0qAwXKwFI4f-25RdQP-281" style="edgeStyle=orthogonalEdgeStyle;rounded=0;orthogonalLoop=1;jettySize=auto;html=1;exitX=0.5;exitY=1;exitDx=0;exitDy=0;entryX=0.5;entryY=0;entryDx=0;entryDy=0;" parent="WIyWlLk6GJQsqaUBKTNV-1" source="k6RSO4q4kQYXokklgoc7-5" target="k6RSO4q4kQYXokklgoc7-28" edge="1">
          <mxGeometry relative="1" as="geometry">
            <mxPoint x="-679" y="1820.0000000000002" as="sourcePoint" />
            <mxPoint x="-679" y="1881" as="targetPoint" />
          </mxGeometry>
        </mxCell>
        <mxCell id="Df0qAwXKwFI4f-25RdQP-282" value="Navigasi Ke" style="edgeLabel;html=1;align=center;verticalAlign=middle;resizable=0;points=[];" parent="Df0qAwXKwFI4f-25RdQP-281" vertex="1" connectable="0">
          <mxGeometry x="-0.15" y="-1" relative="1" as="geometry">
            <mxPoint x="1" y="-1" as="offset" />
          </mxGeometry>
        </mxCell>
        <mxCell id="Df0qAwXKwFI4f-25RdQP-256" style="edgeStyle=orthogonalEdgeStyle;rounded=0;orthogonalLoop=1;jettySize=auto;html=1;entryX=0.5;entryY=0;entryDx=0;entryDy=0;" parent="WIyWlLk6GJQsqaUBKTNV-1" source="Df0qAwXKwFI4f-25RdQP-186" edge="1">
          <mxGeometry relative="1" as="geometry">
            <mxPoint x="-725" y="1710" as="sourcePoint" />
            <Array as="points">
              <mxPoint x="-540" y="1620" />
              <mxPoint x="-580" y="1620" />
              <mxPoint x="-580" y="1690" />
              <mxPoint x="-679" y="1690" />
            </Array>
            <mxPoint x="-679" y="1760" as="targetPoint" />
          </mxGeometry>
        </mxCell>
        <mxCell id="Df0qAwXKwFI4f-25RdQP-257" value="User= Mashasiswa" style="edgeLabel;html=1;align=center;verticalAlign=middle;resizable=0;points=[];" parent="Df0qAwXKwFI4f-25RdQP-256" vertex="1" connectable="0">
          <mxGeometry x="-0.0696" relative="1" as="geometry">
            <mxPoint x="-50" y="3" as="offset" />
          </mxGeometry>
        </mxCell>
        <mxCell id="Df0qAwXKwFI4f-25RdQP-262" value="UKM Model" style="swimlane;fontStyle=0;align=center;verticalAlign=top;childLayout=stackLayout;horizontal=1;startSize=26;horizontalStack=0;resizeParent=1;resizeLast=0;collapsible=1;marginBottom=0;rounded=0;shadow=0;strokeWidth=1;fillColor=#FFE6CC;strokeColor=#D79B00;" parent="WIyWlLk6GJQsqaUBKTNV-1" vertex="1">
          <mxGeometry x="-413" y="2060" width="160" height="110" as="geometry">
            <mxRectangle x="130" y="380" width="160" height="26" as="alternateBounds" />
          </mxGeometry>
        </mxCell>
        <mxCell id="Df0qAwXKwFI4f-25RdQP-263" value="-int id" style="text;align=left;verticalAlign=top;spacingLeft=4;spacingRight=4;overflow=hidden;rotatable=0;points=[[0,0.5],[1,0.5]];portConstraint=eastwest;" parent="Df0qAwXKwFI4f-25RdQP-262" vertex="1">
          <mxGeometry y="26" width="160" height="26" as="geometry" />
        </mxCell>
        <mxCell id="Df0qAwXKwFI4f-25RdQP-264" value="-string nama" style="text;align=left;verticalAlign=top;spacingLeft=4;spacingRight=4;overflow=hidden;rotatable=0;points=[[0,0.5],[1,0.5]];portConstraint=eastwest;rounded=0;shadow=0;html=0;" parent="Df0qAwXKwFI4f-25RdQP-262" vertex="1">
          <mxGeometry y="52" width="160" height="26" as="geometry" />
        </mxCell>
        <mxCell id="Df0qAwXKwFI4f-25RdQP-265" value="" style="line;html=1;strokeWidth=1;align=left;verticalAlign=middle;spacingTop=-1;spacingLeft=3;spacingRight=3;rotatable=0;labelPosition=right;points=[];portConstraint=eastwest;" parent="Df0qAwXKwFI4f-25RdQP-262" vertex="1">
          <mxGeometry y="78" width="160" height="8" as="geometry" />
        </mxCell>
        <mxCell id="Df0qAwXKwFI4f-25RdQP-266" style="edgeStyle=orthogonalEdgeStyle;rounded=0;orthogonalLoop=1;jettySize=auto;html=1;entryX=0;entryY=0.5;entryDx=0;entryDy=0;exitX=0.5;exitY=0;exitDx=0;exitDy=0;" parent="WIyWlLk6GJQsqaUBKTNV-1" source="Df0qAwXKwFI4f-25RdQP-262" target="Df0qAwXKwFI4f-25RdQP-168" edge="1">
          <mxGeometry relative="1" as="geometry">
            <mxPoint x="-240" y="2000" as="targetPoint" />
            <mxPoint x="-340" y="2060" as="sourcePoint" />
            <Array as="points">
              <mxPoint x="-333" y="2013" />
            </Array>
          </mxGeometry>
        </mxCell>
        <mxCell id="Df0qAwXKwFI4f-25RdQP-267" value="Memiliki" style="edgeLabel;html=1;align=center;verticalAlign=middle;resizable=0;points=[];" parent="Df0qAwXKwFI4f-25RdQP-266" vertex="1" connectable="0">
          <mxGeometry x="0.0387" relative="1" as="geometry">
            <mxPoint as="offset" />
          </mxGeometry>
        </mxCell>
        <mxCell id="Df0qAwXKwFI4f-25RdQP-268" value="1" style="edgeLabel;html=1;align=center;verticalAlign=middle;resizable=0;points=[];" parent="Df0qAwXKwFI4f-25RdQP-266" vertex="1" connectable="0">
          <mxGeometry x="-0.842" y="1" relative="1" as="geometry">
            <mxPoint as="offset" />
          </mxGeometry>
        </mxCell>
        <mxCell id="Df0qAwXKwFI4f-25RdQP-269" value="..." style="edgeLabel;html=1;align=center;verticalAlign=middle;resizable=0;points=[];" parent="Df0qAwXKwFI4f-25RdQP-266" vertex="1" connectable="0">
          <mxGeometry x="0.7858" relative="1" as="geometry">
            <mxPoint as="offset" />
          </mxGeometry>
        </mxCell>
        <mxCell id="Df0qAwXKwFI4f-25RdQP-277" style="edgeStyle=orthogonalEdgeStyle;rounded=0;orthogonalLoop=1;jettySize=auto;html=1;" parent="WIyWlLk6GJQsqaUBKTNV-1" target="k6RSO4q4kQYXokklgoc7-5" edge="1">
          <mxGeometry relative="1" as="geometry">
            <Array as="points">
              <mxPoint x="-160" y="2350" />
              <mxPoint x="-1020" y="2350" />
              <mxPoint x="-1020" y="1780" />
            </Array>
            <mxPoint x="-160" y="2200" as="sourcePoint" />
            <mxPoint x="-750" y="1790" as="targetPoint" />
          </mxGeometry>
        </mxCell>
        <mxCell id="Df0qAwXKwFI4f-25RdQP-279" style="edgeStyle=orthogonalEdgeStyle;rounded=0;orthogonalLoop=1;jettySize=auto;html=1;" parent="WIyWlLk6GJQsqaUBKTNV-1" target="k6RSO4q4kQYXokklgoc7-28" edge="1">
          <mxGeometry relative="1" as="geometry">
            <Array as="points">
              <mxPoint x="-160" y="2200" />
              <mxPoint x="-160" y="2350" />
              <mxPoint x="-1020" y="2350" />
              <mxPoint x="-1020" y="1890" />
            </Array>
            <mxPoint x="-160" y="2200" as="sourcePoint" />
            <mxPoint x="-760" y="1890" as="targetPoint" />
          </mxGeometry>
        </mxCell>
        <mxCell id="Df0qAwXKwFI4f-25RdQP-280" value="Menampilkan Papan Peringkat" style="edgeLabel;html=1;align=center;verticalAlign=middle;resizable=0;points=[];" parent="Df0qAwXKwFI4f-25RdQP-279" vertex="1" connectable="0">
          <mxGeometry x="-0.3003" relative="1" as="geometry">
            <mxPoint as="offset" />
          </mxGeometry>
        </mxCell>
        <mxCell id="Df0qAwXKwFI4f-25RdQP-270" value="PapanPeringkanController" style="swimlane;fontStyle=0;align=center;verticalAlign=top;childLayout=stackLayout;horizontal=1;startSize=26;horizontalStack=0;resizeParent=1;resizeLast=0;collapsible=1;marginBottom=0;rounded=0;shadow=0;strokeWidth=1;fillColor=#DAE8FC;strokeColor=#6C8EBF;" parent="WIyWlLk6GJQsqaUBKTNV-1" vertex="1">
          <mxGeometry x="-200" y="2130" width="230" height="70" as="geometry">
            <mxRectangle x="130" y="380" width="160" height="26" as="alternateBounds" />
          </mxGeometry>
        </mxCell>
        <mxCell id="Df0qAwXKwFI4f-25RdQP-271" value="" style="line;html=1;strokeWidth=1;align=left;verticalAlign=middle;spacingTop=-1;spacingLeft=3;spacingRight=3;rotatable=0;labelPosition=right;points=[];portConstraint=eastwest;" parent="Df0qAwXKwFI4f-25RdQP-270" vertex="1">
          <mxGeometry y="26" width="230" height="8" as="geometry" />
        </mxCell>
        <mxCell id="Df0qAwXKwFI4f-25RdQP-272" value="+void titungScoreUkm(ukm_id, score)" style="text;align=left;verticalAlign=top;spacingLeft=4;spacingRight=4;overflow=hidden;rotatable=0;points=[[0,0.5],[1,0.5]];portConstraint=eastwest;" parent="Df0qAwXKwFI4f-25RdQP-270" vertex="1">
          <mxGeometry y="34" width="230" height="26" as="geometry" />
        </mxCell>
        <mxCell id="Df0qAwXKwFI4f-25RdQP-273" value="" style="endArrow=block;endSize=10;endFill=0;shadow=0;strokeWidth=1;rounded=0;curved=0;edgeStyle=elbowEdgeStyle;elbow=horizontal;" parent="WIyWlLk6GJQsqaUBKTNV-1" edge="1">
          <mxGeometry width="160" relative="1" as="geometry">
            <mxPoint x="-90" y="2130" as="sourcePoint" />
            <mxPoint x="-90" y="2080" as="targetPoint" />
            <Array as="points">
              <mxPoint x="-90" y="2100" />
            </Array>
          </mxGeometry>
        </mxCell>
        <mxCell id="Df0qAwXKwFI4f-25RdQP-274" value="Menfambil Score-score berdararkan UKM" style="edgeLabel;html=1;align=center;verticalAlign=middle;resizable=0;points=[];" parent="Df0qAwXKwFI4f-25RdQP-273" vertex="1" connectable="0">
          <mxGeometry x="-0.1191" relative="1" as="geometry">
            <mxPoint y="-2" as="offset" />
          </mxGeometry>
        </mxCell>
        <mxCell id="Df0qAwXKwFI4f-25RdQP-284" style="edgeStyle=orthogonalEdgeStyle;rounded=0;orthogonalLoop=1;jettySize=auto;html=1;exitX=0.5;exitY=1;exitDx=0;exitDy=0;" parent="WIyWlLk6GJQsqaUBKTNV-1" source="k6RSO4q4kQYXokklgoc7-28" target="k6RSO4q4kQYXokklgoc7-34" edge="1">
          <mxGeometry relative="1" as="geometry">
            <mxPoint x="-679" y="1941" as="sourcePoint" />
            <mxPoint x="-910" y="1981" as="targetPoint" />
          </mxGeometry>
        </mxCell>
        <mxCell id="Df0qAwXKwFI4f-25RdQP-285" style="edgeStyle=orthogonalEdgeStyle;rounded=0;orthogonalLoop=1;jettySize=auto;html=1;exitX=0.5;exitY=1;exitDx=0;exitDy=0;" parent="WIyWlLk6GJQsqaUBKTNV-1" source="k6RSO4q4kQYXokklgoc7-28" target="k6RSO4q4kQYXokklgoc7-40" edge="1">
          <mxGeometry relative="1" as="geometry">
            <mxPoint x="-679" y="1941" as="sourcePoint" />
            <mxPoint x="-759.0000000000002" y="1981" as="targetPoint" />
          </mxGeometry>
        </mxCell>
        <mxCell id="Df0qAwXKwFI4f-25RdQP-287" style="edgeStyle=orthogonalEdgeStyle;rounded=0;orthogonalLoop=1;jettySize=auto;html=1;exitX=0.5;exitY=1;exitDx=0;exitDy=0;" parent="WIyWlLk6GJQsqaUBKTNV-1" source="k6RSO4q4kQYXokklgoc7-28" target="k6RSO4q4kQYXokklgoc7-37" edge="1">
          <mxGeometry relative="1" as="geometry">
            <mxPoint x="-679" y="1941" as="sourcePoint" />
            <mxPoint x="-590" y="1981" as="targetPoint" />
          </mxGeometry>
        </mxCell>
        <mxCell id="Df0qAwXKwFI4f-25RdQP-288" value="Navigasi Ke" style="edgeLabel;html=1;align=center;verticalAlign=middle;resizable=0;points=[];" parent="Df0qAwXKwFI4f-25RdQP-287" vertex="1" connectable="0">
          <mxGeometry x="-0.8065" relative="1" as="geometry">
            <mxPoint as="offset" />
          </mxGeometry>
        </mxCell>
        <mxCell id="Df0qAwXKwFI4f-25RdQP-289" value="" style="endArrow=block;endSize=10;endFill=0;shadow=0;strokeWidth=1;rounded=0;curved=0;edgeStyle=elbowEdgeStyle;elbow=horizontal;exitX=1;exitY=0.5;exitDx=0;exitDy=0;entryX=0;entryY=0.5;entryDx=0;entryDy=0;" parent="WIyWlLk6GJQsqaUBKTNV-1" source="Df0qAwXKwFI4f-25RdQP-93" target="Df0qAwXKwFI4f-25RdQP-169" edge="1">
          <mxGeometry width="160" relative="1" as="geometry">
            <mxPoint x="-437" y="2156" as="sourcePoint" />
            <mxPoint x="-299" y="2171" as="targetPoint" />
            <Array as="points">
              <mxPoint x="-230" y="2120" />
            </Array>
          </mxGeometry>
        </mxCell>
        <mxCell id="Df0qAwXKwFI4f-25RdQP-290" value="Mengambil Detail Misi" style="edgeLabel;html=1;align=center;verticalAlign=middle;resizable=0;points=[];" parent="Df0qAwXKwFI4f-25RdQP-289" vertex="1" connectable="0">
          <mxGeometry x="-0.1191" relative="1" as="geometry">
            <mxPoint x="-29" y="-10" as="offset" />
          </mxGeometry>
        </mxCell>
        <mxCell id="Df0qAwXKwFI4f-25RdQP-291" style="edgeStyle=orthogonalEdgeStyle;rounded=0;orthogonalLoop=1;jettySize=auto;html=1;exitX=1;exitY=0.5;exitDx=0;exitDy=0;" parent="WIyWlLk6GJQsqaUBKTNV-1" source="Df0qAwXKwFI4f-25RdQP-93" target="k6RSO4q4kQYXokklgoc7-28" edge="1">
          <mxGeometry relative="1" as="geometry">
            <mxPoint x="-619" y="1911" as="targetPoint" />
            <Array as="points">
              <mxPoint x="-510" y="2287" />
              <mxPoint x="-510" y="1911" />
            </Array>
          </mxGeometry>
        </mxCell>
        <mxCell id="Df0qAwXKwFI4f-25RdQP-293" value="Menampilkan Misi Guild" style="edgeLabel;html=1;align=center;verticalAlign=middle;resizable=0;points=[];" parent="Df0qAwXKwFI4f-25RdQP-291" vertex="1" connectable="0">
          <mxGeometry x="-0.4899" y="1" relative="1" as="geometry">
            <mxPoint x="31" y="-4" as="offset" />
          </mxGeometry>
        </mxCell>
        <mxCell id="Df0qAwXKwFI4f-25RdQP-297" style="edgeStyle=orthogonalEdgeStyle;rounded=0;orthogonalLoop=1;jettySize=auto;html=1;exitX=0.007;exitY=0.009;exitDx=0;exitDy=0;exitPerimeter=0;" parent="WIyWlLk6GJQsqaUBKTNV-1" source="Df0qAwXKwFI4f-25RdQP-92" target="k6RSO4q4kQYXokklgoc7-34" edge="1">
          <mxGeometry relative="1" as="geometry">
            <Array as="points">
              <mxPoint x="-833" y="2221" />
              <mxPoint x="-910" y="2221" />
            </Array>
            <mxPoint x="-910" y="2041" as="targetPoint" />
          </mxGeometry>
        </mxCell>
        <mxCell id="Df0qAwXKwFI4f-25RdQP-298" value="Menampilkan History&lt;div&gt;Misi&lt;/div&gt;" style="edgeLabel;html=1;align=center;verticalAlign=middle;resizable=0;points=[];" parent="Df0qAwXKwFI4f-25RdQP-297" vertex="1" connectable="0">
          <mxGeometry x="-0.0334" y="1" relative="1" as="geometry">
            <mxPoint y="-1" as="offset" />
          </mxGeometry>
        </mxCell>
        <mxCell id="Df0qAwXKwFI4f-25RdQP-304" style="edgeStyle=orthogonalEdgeStyle;rounded=0;orthogonalLoop=1;jettySize=auto;html=1;entryX=0.877;entryY=-0.006;entryDx=0;entryDy=0;entryPerimeter=0;" parent="WIyWlLk6GJQsqaUBKTNV-1" source="k6RSO4q4kQYXokklgoc7-37" target="Df0qAwXKwFI4f-25RdQP-89" edge="1">
          <mxGeometry relative="1" as="geometry">
            <mxPoint x="-590" y="2041" as="sourcePoint" />
          </mxGeometry>
        </mxCell>
        <mxCell id="Df0qAwXKwFI4f-25RdQP-305" value="Mengirimkan Request&lt;div&gt;Misi&lt;/div&gt;" style="edgeLabel;html=1;align=center;verticalAlign=middle;resizable=0;points=[];" parent="Df0qAwXKwFI4f-25RdQP-304" vertex="1" connectable="0">
          <mxGeometry x="-0.4232" y="2" relative="1" as="geometry">
            <mxPoint x="-2" y="12" as="offset" />
          </mxGeometry>
        </mxCell>
        <mxCell id="Df0qAwXKwFI4f-25RdQP-306" style="edgeStyle=orthogonalEdgeStyle;rounded=0;orthogonalLoop=1;jettySize=auto;html=1;" parent="WIyWlLk6GJQsqaUBKTNV-1" target="k6RSO4q4kQYXokklgoc7-7" edge="1">
          <mxGeometry relative="1" as="geometry">
            <Array as="points">
              <mxPoint x="-1000" y="2261" />
              <mxPoint x="-1000" y="1810" />
            </Array>
            <mxPoint x="-835" y="2261" as="sourcePoint" />
            <mxPoint x="-753.4999999999998" y="1833" as="targetPoint" />
          </mxGeometry>
        </mxCell>
        <mxCell id="Df0qAwXKwFI4f-25RdQP-307" style="edgeStyle=orthogonalEdgeStyle;rounded=0;orthogonalLoop=1;jettySize=auto;html=1;" parent="WIyWlLk6GJQsqaUBKTNV-1" target="k6RSO4q4kQYXokklgoc7-28" edge="1">
          <mxGeometry relative="1" as="geometry">
            <Array as="points">
              <mxPoint x="-1000" y="2261" />
              <mxPoint x="-1000" y="1926" />
            </Array>
            <mxPoint x="-835" y="2261" as="sourcePoint" />
            <mxPoint x="-739" y="1926" as="targetPoint" />
          </mxGeometry>
        </mxCell>
        <mxCell id="Df0qAwXKwFI4f-25RdQP-308" value="Menampilkan Perolehan Poin&lt;div&gt;Mahasiswa&lt;/div&gt;" style="edgeLabel;html=1;align=center;verticalAlign=middle;resizable=0;points=[];" parent="Df0qAwXKwFI4f-25RdQP-307" vertex="1" connectable="0">
          <mxGeometry x="-0.5746" y="-2" relative="1" as="geometry">
            <mxPoint x="74" y="-13" as="offset" />
          </mxGeometry>
        </mxCell>
        <mxCell id="Df0qAwXKwFI4f-25RdQP-317" style="edgeStyle=orthogonalEdgeStyle;rounded=0;orthogonalLoop=1;jettySize=auto;html=1;exitX=0.5;exitY=1;exitDx=0;exitDy=0;" parent="WIyWlLk6GJQsqaUBKTNV-1" source="Df0qAwXKwFI4f-25RdQP-309" target="k6RSO4q4kQYXokklgoc7-13" edge="1">
          <mxGeometry relative="1" as="geometry">
            <mxPoint x="-950" y="1670" as="targetPoint" />
          </mxGeometry>
        </mxCell>
        <mxCell id="Df0qAwXKwFI4f-25RdQP-318" value="Menampilkan Detail Profil" style="edgeLabel;html=1;align=center;verticalAlign=middle;resizable=0;points=[];" parent="Df0qAwXKwFI4f-25RdQP-317" vertex="1" connectable="0">
          <mxGeometry x="-0.0295" y="-1" relative="1" as="geometry">
            <mxPoint as="offset" />
          </mxGeometry>
        </mxCell>
        <mxCell id="Df0qAwXKwFI4f-25RdQP-309" value="ProfilController" style="swimlane;fontStyle=0;align=center;verticalAlign=top;childLayout=stackLayout;horizontal=1;startSize=26;horizontalStack=0;resizeParent=1;resizeLast=0;collapsible=1;marginBottom=0;rounded=0;shadow=0;strokeWidth=1;fillColor=#DAE8FC;strokeColor=#6C8EBF;" parent="WIyWlLk6GJQsqaUBKTNV-1" vertex="1">
          <mxGeometry x="-1030" y="1530" width="160" height="70" as="geometry">
            <mxRectangle x="-1030" y="1530" width="160" height="26" as="alternateBounds" />
          </mxGeometry>
        </mxCell>
        <mxCell id="Df0qAwXKwFI4f-25RdQP-310" value="" style="line;html=1;strokeWidth=1;align=left;verticalAlign=middle;spacingTop=-1;spacingLeft=3;spacingRight=3;rotatable=0;labelPosition=right;points=[];portConstraint=eastwest;" parent="Df0qAwXKwFI4f-25RdQP-309" vertex="1">
          <mxGeometry y="26" width="160" height="8" as="geometry" />
        </mxCell>
        <mxCell id="Df0qAwXKwFI4f-25RdQP-311" value="+void detailUser(id)" style="text;align=left;verticalAlign=top;spacingLeft=4;spacingRight=4;overflow=hidden;rotatable=0;points=[[0,0.5],[1,0.5]];portConstraint=eastwest;" parent="Df0qAwXKwFI4f-25RdQP-309" vertex="1">
          <mxGeometry y="34" width="160" height="26" as="geometry" />
        </mxCell>
        <mxCell id="Df0qAwXKwFI4f-25RdQP-315" value="" style="endArrow=block;endSize=10;endFill=0;shadow=0;strokeWidth=1;rounded=0;curved=0;edgeStyle=elbowEdgeStyle;elbow=horizontal;exitX=0.5;exitY=0;exitDx=0;exitDy=0;entryX=-0.001;entryY=0.097;entryDx=0;entryDy=0;entryPerimeter=0;" parent="WIyWlLk6GJQsqaUBKTNV-1" source="Df0qAwXKwFI4f-25RdQP-309" target="Df0qAwXKwFI4f-25RdQP-171" edge="1">
          <mxGeometry width="160" relative="1" as="geometry">
            <mxPoint x="-896" y="1604" as="sourcePoint" />
            <mxPoint x="-860" y="1390" as="targetPoint" />
            <Array as="points">
              <mxPoint x="-953" y="1584" />
            </Array>
          </mxGeometry>
        </mxCell>
        <mxCell id="Df0qAwXKwFI4f-25RdQP-316" value="Mengambil Detail User&lt;div&gt;Berdasarkan Id Log in&lt;/div&gt;" style="edgeLabel;html=1;align=center;verticalAlign=middle;resizable=0;points=[];" parent="Df0qAwXKwFI4f-25RdQP-315" vertex="1" connectable="0">
          <mxGeometry x="-0.1191" relative="1" as="geometry">
            <mxPoint x="-10" y="8" as="offset" />
          </mxGeometry>
        </mxCell>
        <mxCell id="Df0qAwXKwFI4f-25RdQP-320" value="&lt;div style=&quot;&quot;&gt;&lt;span style=&quot;background-color: initial;&quot;&gt;&lt;b&gt;KETERANGAN&lt;/b&gt;&lt;/span&gt;&lt;/div&gt;&lt;div style=&quot;&quot;&gt;&lt;span style=&quot;background-color: initial;&quot;&gt;&lt;br&gt;&lt;/span&gt;&lt;/div&gt;&lt;div style=&quot;text-align: justify;&quot;&gt;&lt;span style=&quot;background-color: initial;&quot;&gt;Oren = Model&lt;/span&gt;&lt;/div&gt;&lt;div style=&quot;text-align: justify;&quot;&gt;Biru = Controller&lt;/div&gt;&lt;div style=&quot;text-align: justify;&quot;&gt;Hijau = View&lt;/div&gt;" style="rounded=0;whiteSpace=wrap;html=1;" parent="WIyWlLk6GJQsqaUBKTNV-1" vertex="1">
          <mxGeometry x="-85" y="1360" width="115" height="90" as="geometry" />
        </mxCell>
        <mxCell id="k6RSO4q4kQYXokklgoc7-0" value="LoginView" style="swimlane;fontStyle=0;align=center;verticalAlign=top;childLayout=stackLayout;horizontal=1;startSize=26;horizontalStack=0;resizeParent=1;resizeLast=0;collapsible=1;marginBottom=0;rounded=0;shadow=0;strokeWidth=1;fillColor=#D5E8D4;strokeColor=#82B366;" vertex="1" parent="WIyWlLk6GJQsqaUBKTNV-1">
          <mxGeometry x="-870" y="1632" width="150" height="122" as="geometry">
            <mxRectangle x="-870" y="1632" width="160" height="26" as="alternateBounds" />
          </mxGeometry>
        </mxCell>
        <mxCell id="k6RSO4q4kQYXokklgoc7-1" value="" style="line;html=1;strokeWidth=1;align=left;verticalAlign=middle;spacingTop=-1;spacingLeft=3;spacingRight=3;rotatable=0;labelPosition=right;points=[];portConstraint=eastwest;" vertex="1" parent="k6RSO4q4kQYXokklgoc7-0">
          <mxGeometry y="26" width="150" height="8" as="geometry" />
        </mxCell>
        <mxCell id="k6RSO4q4kQYXokklgoc7-2" value="+Route::get(/login)&#xa;    -&gt;middleware(guest)" style="text;align=left;verticalAlign=top;spacingLeft=4;spacingRight=4;overflow=hidden;rotatable=0;points=[[0,0.5],[1,0.5]];portConstraint=eastwest;fontStyle=0" vertex="1" parent="k6RSO4q4kQYXokklgoc7-0">
          <mxGeometry y="34" width="150" height="36" as="geometry" />
        </mxCell>
        <mxCell id="k6RSO4q4kQYXokklgoc7-3" value="+Route::post(/login)" style="text;align=left;verticalAlign=top;spacingLeft=4;spacingRight=4;overflow=hidden;rotatable=0;points=[[0,0.5],[1,0.5]];portConstraint=eastwest;fontStyle=0" vertex="1" parent="k6RSO4q4kQYXokklgoc7-0">
          <mxGeometry y="70" width="150" height="26" as="geometry" />
        </mxCell>
        <mxCell id="k6RSO4q4kQYXokklgoc7-4" value="+Route::post(/logout)" style="text;align=left;verticalAlign=top;spacingLeft=4;spacingRight=4;overflow=hidden;rotatable=0;points=[[0,0.5],[1,0.5]];portConstraint=eastwest;fontStyle=0" vertex="1" parent="k6RSO4q4kQYXokklgoc7-0">
          <mxGeometry y="96" width="150" height="26" as="geometry" />
        </mxCell>
        <mxCell id="k6RSO4q4kQYXokklgoc7-5" value="HomeMahasiswaView" style="swimlane;fontStyle=0;align=center;verticalAlign=top;childLayout=stackLayout;horizontal=1;startSize=26;horizontalStack=0;resizeParent=1;resizeLast=0;collapsible=1;marginBottom=0;rounded=0;shadow=0;strokeWidth=1;fillColor=#D5E8D4;strokeColor=#82B366;" vertex="1" parent="WIyWlLk6GJQsqaUBKTNV-1">
          <mxGeometry x="-753.5" y="1760" width="149" height="60" as="geometry">
            <mxRectangle x="130" y="380" width="160" height="26" as="alternateBounds" />
          </mxGeometry>
        </mxCell>
        <mxCell id="k6RSO4q4kQYXokklgoc7-6" value="" style="line;html=1;strokeWidth=1;align=left;verticalAlign=middle;spacingTop=-1;spacingLeft=3;spacingRight=3;rotatable=0;labelPosition=right;points=[];portConstraint=eastwest;" vertex="1" parent="k6RSO4q4kQYXokklgoc7-5">
          <mxGeometry y="26" width="149" height="8" as="geometry" />
        </mxCell>
        <mxCell id="k6RSO4q4kQYXokklgoc7-7" value="+Route::get(/)" style="text;align=left;verticalAlign=top;spacingLeft=4;spacingRight=4;overflow=hidden;rotatable=0;points=[[0,0.5],[1,0.5]];portConstraint=eastwest;fontStyle=0" vertex="1" parent="k6RSO4q4kQYXokklgoc7-5">
          <mxGeometry y="34" width="149" height="26" as="geometry" />
        </mxCell>
        <mxCell id="k6RSO4q4kQYXokklgoc7-13" value="Profil View" style="swimlane;fontStyle=0;align=center;verticalAlign=top;childLayout=stackLayout;horizontal=1;startSize=26;horizontalStack=0;resizeParent=1;resizeLast=0;collapsible=1;marginBottom=0;rounded=0;shadow=0;strokeWidth=1;fillColor=#D5E8D4;strokeColor=#82B366;" vertex="1" parent="WIyWlLk6GJQsqaUBKTNV-1">
          <mxGeometry x="-1005" y="1670" width="110" height="90" as="geometry">
            <mxRectangle x="-1005" y="1670" width="160" height="26" as="alternateBounds" />
          </mxGeometry>
        </mxCell>
        <mxCell id="k6RSO4q4kQYXokklgoc7-14" value="" style="line;html=1;strokeWidth=1;align=left;verticalAlign=middle;spacingTop=-1;spacingLeft=3;spacingRight=3;rotatable=0;labelPosition=right;points=[];portConstraint=eastwest;" vertex="1" parent="k6RSO4q4kQYXokklgoc7-13">
          <mxGeometry y="26" width="110" height="8" as="geometry" />
        </mxCell>
        <mxCell id="k6RSO4q4kQYXokklgoc7-15" value="+Route::get(/profil)" style="text;align=left;verticalAlign=top;spacingLeft=4;spacingRight=4;overflow=hidden;rotatable=0;points=[[0,0.5],[1,0.5]];portConstraint=eastwest;fontStyle=0" vertex="1" parent="k6RSO4q4kQYXokklgoc7-13">
          <mxGeometry y="34" width="110" height="26" as="geometry" />
        </mxCell>
        <mxCell id="k6RSO4q4kQYXokklgoc7-16" value="+view(profil)" style="text;align=left;verticalAlign=top;spacingLeft=4;spacingRight=4;overflow=hidden;rotatable=0;points=[[0,0.5],[1,0.5]];portConstraint=eastwest;fontStyle=0" vertex="1" parent="k6RSO4q4kQYXokklgoc7-13">
          <mxGeometry y="60" width="110" height="26" as="geometry" />
        </mxCell>
        <mxCell id="k6RSO4q4kQYXokklgoc7-49" style="edgeStyle=orthogonalEdgeStyle;rounded=0;orthogonalLoop=1;jettySize=auto;html=1;exitX=0.748;exitY=1.02;exitDx=0;exitDy=0;exitPerimeter=0;" edge="1" parent="WIyWlLk6GJQsqaUBKTNV-1" source="k6RSO4q4kQYXokklgoc7-19" target="k6RSO4q4kQYXokklgoc7-46">
          <mxGeometry relative="1" as="geometry">
            <mxPoint x="-320" y="1537" as="sourcePoint" />
            <mxPoint x="-290" y="1507" as="targetPoint" />
            <Array as="points">
              <mxPoint x="-395" y="1650" />
              <mxPoint x="-395" y="1650" />
            </Array>
          </mxGeometry>
        </mxCell>
        <mxCell id="k6RSO4q4kQYXokklgoc7-50" value="Navigasi Ke" style="edgeLabel;html=1;align=center;verticalAlign=middle;resizable=0;points=[];" vertex="1" connectable="0" parent="k6RSO4q4kQYXokklgoc7-49">
          <mxGeometry x="-0.5476" y="1" relative="1" as="geometry">
            <mxPoint y="4" as="offset" />
          </mxGeometry>
        </mxCell>
        <mxCell id="k6RSO4q4kQYXokklgoc7-17" value="HomeAdminUKMView" style="swimlane;fontStyle=0;align=center;verticalAlign=top;childLayout=stackLayout;horizontal=1;startSize=26;horizontalStack=0;resizeParent=1;resizeLast=0;collapsible=1;marginBottom=0;rounded=0;shadow=0;strokeWidth=1;fillColor=#D5E8D4;strokeColor=#82B366;" vertex="1" parent="WIyWlLk6GJQsqaUBKTNV-1">
          <mxGeometry x="-530" y="1588" width="180" height="60" as="geometry">
            <mxRectangle x="-530" y="1588" width="160" height="26" as="alternateBounds" />
          </mxGeometry>
        </mxCell>
        <mxCell id="k6RSO4q4kQYXokklgoc7-18" value="" style="line;html=1;strokeWidth=1;align=left;verticalAlign=middle;spacingTop=-1;spacingLeft=3;spacingRight=3;rotatable=0;labelPosition=right;points=[];portConstraint=eastwest;" vertex="1" parent="k6RSO4q4kQYXokklgoc7-17">
          <mxGeometry y="26" width="180" height="8" as="geometry" />
        </mxCell>
        <mxCell id="k6RSO4q4kQYXokklgoc7-19" value="+Route::get(/dashboard-admin)" style="text;align=left;verticalAlign=top;spacingLeft=4;spacingRight=4;overflow=hidden;rotatable=0;points=[[0,0.5],[1,0.5]];portConstraint=eastwest;fontStyle=0" vertex="1" parent="k6RSO4q4kQYXokklgoc7-17">
          <mxGeometry y="34" width="180" height="26" as="geometry" />
        </mxCell>
        <mxCell id="k6RSO4q4kQYXokklgoc7-24" value="HomeDosenWaliView" style="swimlane;fontStyle=0;align=center;verticalAlign=top;childLayout=stackLayout;horizontal=1;startSize=26;horizontalStack=0;resizeParent=1;resizeLast=0;collapsible=1;marginBottom=0;rounded=0;shadow=0;strokeWidth=1;fillColor=#D5E8D4;strokeColor=#82B366;" vertex="1" parent="WIyWlLk6GJQsqaUBKTNV-1">
          <mxGeometry x="-680" y="1390" width="180" height="60" as="geometry">
            <mxRectangle x="-680" y="1390" width="160" height="26" as="alternateBounds" />
          </mxGeometry>
        </mxCell>
        <mxCell id="k6RSO4q4kQYXokklgoc7-25" value="" style="line;html=1;strokeWidth=1;align=left;verticalAlign=middle;spacingTop=-1;spacingLeft=3;spacingRight=3;rotatable=0;labelPosition=right;points=[];portConstraint=eastwest;" vertex="1" parent="k6RSO4q4kQYXokklgoc7-24">
          <mxGeometry y="26" width="180" height="8" as="geometry" />
        </mxCell>
        <mxCell id="k6RSO4q4kQYXokklgoc7-26" value="+Route::get(/dashboard-dosen)" style="text;align=left;verticalAlign=top;spacingLeft=4;spacingRight=4;overflow=hidden;rotatable=0;points=[[0,0.5],[1,0.5]];portConstraint=eastwest;fontStyle=0" vertex="1" parent="k6RSO4q4kQYXokklgoc7-24">
          <mxGeometry y="34" width="180" height="26" as="geometry" />
        </mxCell>
        <mxCell id="k6RSO4q4kQYXokklgoc7-28" value="MisiView" style="swimlane;fontStyle=0;align=center;verticalAlign=top;childLayout=stackLayout;horizontal=1;startSize=26;horizontalStack=0;resizeParent=1;resizeLast=0;collapsible=1;marginBottom=0;rounded=0;shadow=0;strokeWidth=1;fillColor=#D5E8D4;strokeColor=#82B366;" vertex="1" parent="WIyWlLk6GJQsqaUBKTNV-1">
          <mxGeometry x="-753.5" y="1860" width="149" height="70" as="geometry">
            <mxRectangle x="130" y="380" width="160" height="26" as="alternateBounds" />
          </mxGeometry>
        </mxCell>
        <mxCell id="k6RSO4q4kQYXokklgoc7-29" value="" style="line;html=1;strokeWidth=1;align=left;verticalAlign=middle;spacingTop=-1;spacingLeft=3;spacingRight=3;rotatable=0;labelPosition=right;points=[];portConstraint=eastwest;" vertex="1" parent="k6RSO4q4kQYXokklgoc7-28">
          <mxGeometry y="26" width="149" height="8" as="geometry" />
        </mxCell>
        <mxCell id="k6RSO4q4kQYXokklgoc7-30" value="+Route::get(/misi)" style="text;align=left;verticalAlign=top;spacingLeft=4;spacingRight=4;overflow=hidden;rotatable=0;points=[[0,0.5],[1,0.5]];portConstraint=eastwest;fontStyle=0" vertex="1" parent="k6RSO4q4kQYXokklgoc7-28">
          <mxGeometry y="34" width="149" height="26" as="geometry" />
        </mxCell>
        <mxCell id="k6RSO4q4kQYXokklgoc7-34" value="HistoryMisiView" style="swimlane;fontStyle=0;align=center;verticalAlign=top;childLayout=stackLayout;horizontal=1;startSize=26;horizontalStack=0;resizeParent=1;resizeLast=0;collapsible=1;marginBottom=0;rounded=0;shadow=0;strokeWidth=1;fillColor=#D5E8D4;strokeColor=#82B366;" vertex="1" parent="WIyWlLk6GJQsqaUBKTNV-1">
          <mxGeometry x="-990" y="1981" width="130" height="60" as="geometry">
            <mxRectangle x="130" y="380" width="160" height="26" as="alternateBounds" />
          </mxGeometry>
        </mxCell>
        <mxCell id="k6RSO4q4kQYXokklgoc7-35" value="" style="line;html=1;strokeWidth=1;align=left;verticalAlign=middle;spacingTop=-1;spacingLeft=3;spacingRight=3;rotatable=0;labelPosition=right;points=[];portConstraint=eastwest;" vertex="1" parent="k6RSO4q4kQYXokklgoc7-34">
          <mxGeometry y="26" width="130" height="8" as="geometry" />
        </mxCell>
        <mxCell id="k6RSO4q4kQYXokklgoc7-36" value="+Route::get(/history)" style="text;align=left;verticalAlign=top;spacingLeft=4;spacingRight=4;overflow=hidden;rotatable=0;points=[[0,0.5],[1,0.5]];portConstraint=eastwest;fontStyle=0" vertex="1" parent="k6RSO4q4kQYXokklgoc7-34">
          <mxGeometry y="34" width="130" height="26" as="geometry" />
        </mxCell>
        <mxCell id="k6RSO4q4kQYXokklgoc7-37" value="RequestMisiView" style="swimlane;fontStyle=0;align=center;verticalAlign=top;childLayout=stackLayout;horizontal=1;startSize=26;horizontalStack=0;resizeParent=1;resizeLast=0;collapsible=1;marginBottom=0;rounded=0;shadow=0;strokeWidth=1;fillColor=#D5E8D4;strokeColor=#82B366;" vertex="1" parent="WIyWlLk6GJQsqaUBKTNV-1">
          <mxGeometry x="-660" y="1981" width="139" height="86" as="geometry">
            <mxRectangle x="130" y="380" width="160" height="26" as="alternateBounds" />
          </mxGeometry>
        </mxCell>
        <mxCell id="k6RSO4q4kQYXokklgoc7-38" value="" style="line;html=1;strokeWidth=1;align=left;verticalAlign=middle;spacingTop=-1;spacingLeft=3;spacingRight=3;rotatable=0;labelPosition=right;points=[];portConstraint=eastwest;" vertex="1" parent="k6RSO4q4kQYXokklgoc7-37">
          <mxGeometry y="26" width="139" height="8" as="geometry" />
        </mxCell>
        <mxCell id="k6RSO4q4kQYXokklgoc7-45" value="+Route::get(/request)" style="text;align=left;verticalAlign=top;spacingLeft=4;spacingRight=4;overflow=hidden;rotatable=0;points=[[0,0.5],[1,0.5]];portConstraint=eastwest;fontStyle=0" vertex="1" parent="k6RSO4q4kQYXokklgoc7-37">
          <mxGeometry y="34" width="139" height="26" as="geometry" />
        </mxCell>
        <mxCell id="k6RSO4q4kQYXokklgoc7-39" value="+Route::post(/request{})" style="text;align=left;verticalAlign=top;spacingLeft=4;spacingRight=4;overflow=hidden;rotatable=0;points=[[0,0.5],[1,0.5]];portConstraint=eastwest;fontStyle=0" vertex="1" parent="k6RSO4q4kQYXokklgoc7-37">
          <mxGeometry y="60" width="139" height="26" as="geometry" />
        </mxCell>
        <mxCell id="k6RSO4q4kQYXokklgoc7-40" value="AmbilMisiView" style="swimlane;fontStyle=0;align=center;verticalAlign=top;childLayout=stackLayout;horizontal=1;startSize=26;horizontalStack=0;resizeParent=1;resizeLast=0;collapsible=1;marginBottom=0;rounded=0;shadow=0;strokeWidth=1;fillColor=#D5E8D4;strokeColor=#82B366;" vertex="1" parent="WIyWlLk6GJQsqaUBKTNV-1">
          <mxGeometry x="-850" y="1981" width="180" height="86" as="geometry">
            <mxRectangle x="130" y="380" width="160" height="26" as="alternateBounds" />
          </mxGeometry>
        </mxCell>
        <mxCell id="k6RSO4q4kQYXokklgoc7-41" value="" style="line;html=1;strokeWidth=1;align=left;verticalAlign=middle;spacingTop=-1;spacingLeft=3;spacingRight=3;rotatable=0;labelPosition=right;points=[];portConstraint=eastwest;" vertex="1" parent="k6RSO4q4kQYXokklgoc7-40">
          <mxGeometry y="26" width="180" height="8" as="geometry" />
        </mxCell>
        <mxCell id="k6RSO4q4kQYXokklgoc7-43" value="+Route::post(/ambil-misi{bukti})" style="text;align=left;verticalAlign=top;spacingLeft=4;spacingRight=4;overflow=hidden;rotatable=0;points=[[0,0.5],[1,0.5]];portConstraint=eastwest;fontStyle=0" vertex="1" parent="k6RSO4q4kQYXokklgoc7-40">
          <mxGeometry y="34" width="180" height="26" as="geometry" />
        </mxCell>
        <mxCell id="k6RSO4q4kQYXokklgoc7-42" value="+Route::get(/ambil-misi{id})" style="text;align=left;verticalAlign=top;spacingLeft=4;spacingRight=4;overflow=hidden;rotatable=0;points=[[0,0.5],[1,0.5]];portConstraint=eastwest;fontStyle=0" vertex="1" parent="k6RSO4q4kQYXokklgoc7-40">
          <mxGeometry y="60" width="180" height="26" as="geometry" />
        </mxCell>
        <mxCell id="k6RSO4q4kQYXokklgoc7-46" value="UbahMisiView" style="swimlane;fontStyle=0;align=center;verticalAlign=top;childLayout=stackLayout;horizontal=1;startSize=26;horizontalStack=0;resizeParent=1;resizeLast=0;collapsible=1;marginBottom=0;rounded=0;shadow=0;strokeWidth=1;fillColor=#D5E8D4;strokeColor=#82B366;" vertex="1" parent="WIyWlLk6GJQsqaUBKTNV-1">
          <mxGeometry x="-480" y="1680" width="170" height="86" as="geometry">
            <mxRectangle x="-480" y="1680" width="160" height="26" as="alternateBounds" />
          </mxGeometry>
        </mxCell>
        <mxCell id="k6RSO4q4kQYXokklgoc7-47" value="" style="line;html=1;strokeWidth=1;align=left;verticalAlign=middle;spacingTop=-1;spacingLeft=3;spacingRight=3;rotatable=0;labelPosition=right;points=[];portConstraint=eastwest;" vertex="1" parent="k6RSO4q4kQYXokklgoc7-46">
          <mxGeometry y="26" width="170" height="8" as="geometry" />
        </mxCell>
        <mxCell id="k6RSO4q4kQYXokklgoc7-48" value="+Route::get(/tambah-misi)" style="text;align=left;verticalAlign=top;spacingLeft=4;spacingRight=4;overflow=hidden;rotatable=0;points=[[0,0.5],[1,0.5]];portConstraint=eastwest;fontStyle=0" vertex="1" parent="k6RSO4q4kQYXokklgoc7-46">
          <mxGeometry y="34" width="170" height="26" as="geometry" />
        </mxCell>
        <mxCell id="k6RSO4q4kQYXokklgoc7-51" value="+Route::post(/tambah-misi{})" style="text;align=left;verticalAlign=top;spacingLeft=4;spacingRight=4;overflow=hidden;rotatable=0;points=[[0,0.5],[1,0.5]];portConstraint=eastwest;fontStyle=0" vertex="1" parent="k6RSO4q4kQYXokklgoc7-46">
          <mxGeometry y="60" width="170" height="26" as="geometry" />
        </mxCell>
        <mxCell id="k6RSO4q4kQYXokklgoc7-52" value="TambahMisiView" style="swimlane;fontStyle=0;align=center;verticalAlign=top;childLayout=stackLayout;horizontal=1;startSize=26;horizontalStack=0;resizeParent=1;resizeLast=0;collapsible=1;marginBottom=0;rounded=0;shadow=0;strokeWidth=1;fillColor=#D5E8D4;strokeColor=#82B366;" vertex="1" parent="WIyWlLk6GJQsqaUBKTNV-1">
          <mxGeometry x="-270" y="1620" width="170" height="86" as="geometry">
            <mxRectangle x="-270" y="1620" width="160" height="26" as="alternateBounds" />
          </mxGeometry>
        </mxCell>
        <mxCell id="k6RSO4q4kQYXokklgoc7-53" value="" style="line;html=1;strokeWidth=1;align=left;verticalAlign=middle;spacingTop=-1;spacingLeft=3;spacingRight=3;rotatable=0;labelPosition=right;points=[];portConstraint=eastwest;" vertex="1" parent="k6RSO4q4kQYXokklgoc7-52">
          <mxGeometry y="26" width="170" height="8" as="geometry" />
        </mxCell>
        <mxCell id="k6RSO4q4kQYXokklgoc7-54" value="+Route::get(/tambah-misi)" style="text;align=left;verticalAlign=top;spacingLeft=4;spacingRight=4;overflow=hidden;rotatable=0;points=[[0,0.5],[1,0.5]];portConstraint=eastwest;fontStyle=0" vertex="1" parent="k6RSO4q4kQYXokklgoc7-52">
          <mxGeometry y="34" width="170" height="26" as="geometry" />
        </mxCell>
        <mxCell id="k6RSO4q4kQYXokklgoc7-55" value="+Route::post(/tambah-misi{})" style="text;align=left;verticalAlign=top;spacingLeft=4;spacingRight=4;overflow=hidden;rotatable=0;points=[[0,0.5],[1,0.5]];portConstraint=eastwest;fontStyle=0" vertex="1" parent="k6RSO4q4kQYXokklgoc7-52">
          <mxGeometry y="60" width="170" height="26" as="geometry" />
        </mxCell>
        <mxCell id="k6RSO4q4kQYXokklgoc7-56" style="edgeStyle=orthogonalEdgeStyle;rounded=0;orthogonalLoop=1;jettySize=auto;html=1;exitX=1;exitY=0.5;exitDx=0;exitDy=0;entryX=0.003;entryY=0.169;entryDx=0;entryDy=0;entryPerimeter=0;" edge="1" parent="WIyWlLk6GJQsqaUBKTNV-1" source="k6RSO4q4kQYXokklgoc7-19" target="k6RSO4q4kQYXokklgoc7-52">
          <mxGeometry relative="1" as="geometry">
            <mxPoint x="-310" y="1639" as="sourcePoint" />
            <mxPoint x="-310" y="1670" as="targetPoint" />
            <Array as="points">
              <mxPoint x="-310" y="1635" />
            </Array>
          </mxGeometry>
        </mxCell>
        <mxCell id="k6RSO4q4kQYXokklgoc7-57" value="Navigasi Ke" style="edgeLabel;html=1;align=center;verticalAlign=middle;resizable=0;points=[];" vertex="1" connectable="0" parent="k6RSO4q4kQYXokklgoc7-56">
          <mxGeometry x="-0.5476" y="1" relative="1" as="geometry">
            <mxPoint x="18" y="-7" as="offset" />
          </mxGeometry>
        </mxCell>
        <mxCell id="k6RSO4q4kQYXokklgoc7-58" style="edgeStyle=orthogonalEdgeStyle;rounded=0;orthogonalLoop=1;jettySize=auto;html=1;entryX=0.189;entryY=0;entryDx=0;entryDy=0;entryPerimeter=0;exitX=0.168;exitY=1.01;exitDx=0;exitDy=0;exitPerimeter=0;" edge="1" parent="WIyWlLk6GJQsqaUBKTNV-1" source="k6RSO4q4kQYXokklgoc7-51" target="Df0qAwXKwFI4f-25RdQP-233">
          <mxGeometry relative="1" as="geometry">
            <mxPoint x="-426" y="1770" as="sourcePoint" />
            <mxPoint x="-385" y="1690" as="targetPoint" />
            <Array as="points">
              <mxPoint x="-451" y="1766" />
            </Array>
          </mxGeometry>
        </mxCell>
        <mxCell id="k6RSO4q4kQYXokklgoc7-59" value="Mengirim Perubahan" style="edgeLabel;html=1;align=center;verticalAlign=middle;resizable=0;points=[];" vertex="1" connectable="0" parent="k6RSO4q4kQYXokklgoc7-58">
          <mxGeometry x="-0.5476" y="1" relative="1" as="geometry">
            <mxPoint y="2" as="offset" />
          </mxGeometry>
        </mxCell>
        <mxCell id="k6RSO4q4kQYXokklgoc7-60" style="edgeStyle=orthogonalEdgeStyle;rounded=0;orthogonalLoop=1;jettySize=auto;html=1;exitX=0.201;exitY=1.048;exitDx=0;exitDy=0;entryX=0.938;entryY=0.005;entryDx=0;entryDy=0;entryPerimeter=0;exitPerimeter=0;" edge="1" parent="WIyWlLk6GJQsqaUBKTNV-1" source="k6RSO4q4kQYXokklgoc7-55" target="Df0qAwXKwFI4f-25RdQP-233">
          <mxGeometry relative="1" as="geometry">
            <Array as="points">
              <mxPoint x="-236" y="1760" />
              <mxPoint x="-275" y="1760" />
            </Array>
          </mxGeometry>
        </mxCell>
        <mxCell id="k6RSO4q4kQYXokklgoc7-61" value="Mengirim Inputan" style="edgeLabel;html=1;align=center;verticalAlign=middle;resizable=0;points=[];" vertex="1" connectable="0" parent="k6RSO4q4kQYXokklgoc7-60">
          <mxGeometry x="0.085" y="-1" relative="1" as="geometry">
            <mxPoint x="-1" y="-12" as="offset" />
          </mxGeometry>
        </mxCell>
        <mxCell id="k6RSO4q4kQYXokklgoc7-62" style="edgeStyle=orthogonalEdgeStyle;rounded=0;orthogonalLoop=1;jettySize=auto;html=1;entryX=0.823;entryY=1.012;entryDx=0;entryDy=0;entryPerimeter=0;exitX=0.661;exitY=0;exitDx=0;exitDy=0;exitPerimeter=0;" edge="1" parent="WIyWlLk6GJQsqaUBKTNV-1" source="Df0qAwXKwFI4f-25RdQP-233" target="k6RSO4q4kQYXokklgoc7-51">
          <mxGeometry relative="1" as="geometry">
            <mxPoint x="-320" y="1810" as="sourcePoint" />
            <mxPoint x="-441" y="1817" as="targetPoint" />
            <Array as="points" />
          </mxGeometry>
        </mxCell>
        <mxCell id="k6RSO4q4kQYXokklgoc7-63" value="Mengirimkan detail misi (id)" style="edgeLabel;html=1;align=center;verticalAlign=middle;resizable=0;points=[];" vertex="1" connectable="0" parent="k6RSO4q4kQYXokklgoc7-62">
          <mxGeometry x="-0.5476" y="1" relative="1" as="geometry">
            <mxPoint x="-17" y="-2" as="offset" />
          </mxGeometry>
        </mxCell>
      </root>
    </mxGraphModel>
  </diagram>
</mxfile>
